<?xml version="1.0" encoding="UTF-8"?>
<svg xmlns="http://www.w3.org/2000/svg" xmlns:xlink="http://www.w3.org/1999/xlink" viewBox="0 0 10 10" width="10px" height="10px">
<g id="surface81001682">
<path style=" stroke:none;fill-rule:nonzero;fill:rgb(100%,100%,100%);fill-opacity:1;" d="M 4.199219 0.601562 C 2.320312 0.601562 0.800781 2.121094 0.800781 4 C 0.800781 5.878906 2.320312 7.398438 4.199219 7.398438 C 4.871094 7.398438 5.492188 7.203125 6.019531 6.867188 L 8.476562 9.324219 L 9.324219 8.476562 L 6.898438 6.054688 C 7.335938 5.484375 7.601562 4.777344 7.601562 4 C 7.601562 2.121094 6.078125 0.601562 4.199219 0.601562 Z M 4.199219 1.398438 C 5.640625 1.398438 6.800781 2.558594 6.800781 4 C 6.800781 5.441406 5.640625 6.601562 4.199219 6.601562 C 2.761719 6.601562 1.601562 5.441406 1.601562 4 C 1.601562 2.558594 2.761719 1.398438 4.199219 1.398438 Z M 4.199219 1.398438 "/>
</g>
</svg>
